# xmcd
#
# Track frame offsets:
#	150
#	19409
#	36165
#	49758
#	67226
#	85381
#	100033
#	119138
#	137166
#	154339
#	167506
#	184099
#	195678
#	214164
#	233856
#	249261
#	268081
#	278388
#	292880
#	309935
#
# Disc length: 4308 seconds
#
# Revision: 0
# Processed by: cddbd v1.5.1PL0 Copyright (c) Steve Scherf et al.
# Submitted via: dBpowerAMP V4.0
#
DISCID=2410d214
DTITLE=Milionário and José Rico - Matogrosso and Mathias - Coletânia
DYEAR=1900
DGENRE=Sertanejo
TTITLE0=Milionário and José Rico - Decida
TTITLE1=Matogrosso and Mathias - Mistério
TTITLE2=Milionário and José Rico - Canarinho do Peito Amarelo
TTITLE3=Matogrosso and Mathias - A Primeira Vez que Eu Te Ví
TTITLE4=Milionário and José Rico - Fim de Noite
TTITLE5=Matogrosso and Mathias - De Igual pra Igual
TTITLE6=Milionário and José Rico - A Carta
TTITLE7=Matogrosso and Mathias - Tentei te Esquecer
TTITLE8=Milionário and José Rico - Milagre da Flecha
TTITLE9=Matogrosso and Mathias - Eu Quero Te Namorar
TTITLE10=Milionário and José Rico - Viva a Vida
TTITLE11=Matogrosso and Mathias - So Fazendo Amor
TTITLE12=Milionário and José Rico - Porque Chora a Tarde
TTITLE13=Matogrosso and Mathias - Frente a Frente
TTITLE14=Milionário and José Rico - Lenha Molhada
TTITLE15=Matogrosso and Mathias - Na Hora do Adeus
TTITLE16=Milionário and José Rico - Estrda da Vida
TTITLE17=Matogrosso and Mathias - Idas e Voltas
TTITLE18=Milionário and José Rico - Nenhuma Esperança
TTITLE19=Matogrosso and Mathias - 24 horas de Amor
EXTD=By Natanael From Brasil
EXTT0=
EXTT1=
EXTT2=
EXTT3=
EXTT4=
EXTT5=
EXTT6=
EXTT7=
EXTT8=
EXTT9=
EXTT10=
EXTT11=
EXTT12=
EXTT13=
EXTT14=
EXTT15=
EXTT16=
EXTT17=
EXTT18=
EXTT19=
PLAYORDER=
